<svg width="40" height="40" viewBox="0 0 40 40" fill="none" xmlns="http://www.w3.org/2000/svg">
<rect x="0.5" y="0.5" width="39" height="39" rx="5.5" fill="white"/>
<path fill-rule="evenodd" clip-rule="evenodd" d="M18.7748 13.2C18.4849 13.2 18.2498 13.4351 18.2498 13.725V14.1721H21.2165V13.725C21.2165 13.4351 20.9814 13.2 20.6915 13.2H18.7748ZM17.0498 13.725V14.1721H12.65C12.291 14.1721 12 14.4631 12 14.8221C12 15.1811 12.291 15.4721 12.65 15.4721H13.7168V25.5998C13.7168 26.8517 14.7316 27.8665 15.9835 27.8665H23.3446C24.5964 27.8665 25.6112 26.8517 25.6112 25.5998V15.4721H26.8167C27.1757 15.4721 27.4667 15.1811 27.4667 14.8221C27.4667 14.4631 27.1757 14.1721 26.8167 14.1721H22.4165V13.725C22.4165 12.7723 21.6442 12 20.6915 12H18.7748C17.8221 12 17.0498 12.7723 17.0498 13.725ZM24.4112 15.4721H14.9168V25.5998C14.9168 26.1889 15.3944 26.6665 15.9835 26.6665H23.3446C23.9337 26.6665 24.4112 26.1889 24.4112 25.5998V15.4721ZM17.8328 18.2665C17.8328 17.9351 17.5642 17.6665 17.2328 17.6665C16.9014 17.6665 16.6328 17.9351 16.6328 18.2665V24.2386C16.6328 24.57 16.9014 24.8386 17.2328 24.8386C17.5642 24.8386 17.8328 24.57 17.8328 24.2386V18.2665ZM19.7328 17.6665C20.0642 17.6665 20.3328 17.9351 20.3328 18.2665V24.2386C20.3328 24.57 20.0642 24.8386 19.7328 24.8386C19.4014 24.8386 19.1328 24.57 19.1328 24.2386V18.2665C19.1328 17.9351 19.4014 17.6665 19.7328 17.6665ZM22.8328 18.2665C22.8328 17.9351 22.5642 17.6665 22.2328 17.6665C21.9014 17.6665 21.6328 17.9351 21.6328 18.2665V24.2386C21.6328 24.57 21.9014 24.8386 22.2328 24.8386C22.5642 24.8386 22.8328 24.57 22.8328 24.2386V18.2665Z" fill="#555555"/>
<rect x="0.5" y="0.5" width="39" height="39" rx="5.5" stroke="#CCCCCC"/>
</svg>
