<svg width="80" height="32" viewBox="0 0 80 32" fill="none" xmlns="http://www.w3.org/2000/svg">
<rect width="80" height="32" rx="16" fill="#9935FF"/>
<path d="M12.834 21V11.1016H16.7168C18.9658 11.1016 20.2578 12.4893 20.2578 14.4375C20.2578 16.4131 18.9453 17.7734 16.6621 17.7734H14.8848V21H12.834ZM14.8848 16.1191H16.334C17.5508 16.1191 18.1455 15.4355 18.1387 14.4375C18.1455 13.4531 17.5508 12.79 16.334 12.7832H14.8848V16.1191ZM24.6585 21.1504C22.4163 21.1436 21.015 19.6055 21.0218 17.3086C21.015 15.0186 22.4163 13.4805 24.6585 13.4805C26.9075 13.4805 28.3021 15.0186 28.3089 17.3086C28.3021 19.6055 26.9075 21.1436 24.6585 21.1504ZM23.0726 17.3086C23.0726 18.6074 23.6126 19.5713 24.6722 19.5781C25.7044 19.5713 26.2513 18.6074 26.2445 17.3086C26.2513 16.0029 25.7044 15.0254 24.6722 15.0254C23.6126 15.0254 23.0726 16.0029 23.0726 17.3086ZM29.5104 21V13.5762H31.5338V21H29.5104ZM29.4147 11.5801C29.4147 11.0059 29.9137 10.5479 30.5221 10.541C31.1237 10.5479 31.6227 11.0059 31.6159 11.5801C31.6227 12.1406 31.1237 12.6055 30.5221 12.6055C29.9137 12.6055 29.4147 12.1406 29.4147 11.5801ZM35.0595 16.707V21H33.0361V13.5762H34.9638V14.875H35.0459C35.3808 14.0205 36.1738 13.4805 37.2744 13.4805C38.8261 13.4805 39.8379 14.54 39.831 16.2695V21H37.8213V16.625C37.8144 15.709 37.3222 15.1621 36.4814 15.1621C35.6406 15.1621 35.0595 15.7295 35.0595 16.707ZM45.2434 13.5762V15.0938H43.8489V18.7168C43.8421 19.3115 44.136 19.4551 44.5462 19.4688C44.7512 19.4688 45.1067 19.4482 45.3528 19.4277V21.0273C45.1341 21.0615 44.7718 21.1025 44.2727 21.0957C42.8098 21.1025 41.8118 20.4463 41.8255 19.0039V15.0938H40.8001V13.5762H41.8255V11.7988H43.8489V13.5762H45.2434ZM47.6344 21.123C46.9918 21.123 46.4723 20.6104 46.4859 19.9746C46.4723 19.3457 46.9918 18.833 47.6344 18.8398C48.2428 18.833 48.7691 19.3457 48.7691 19.9746C48.7691 20.6104 48.2428 21.123 47.6344 21.123ZM56.8596 21.1367C54.3782 21.1367 52.8811 19.291 52.8811 16.0508C52.8811 12.8174 54.3918 10.9648 56.8596 10.9648C59.3274 10.9648 60.8381 12.8174 60.8381 16.0508C60.8381 19.3047 59.3342 21.1367 56.8596 21.1367ZM54.9866 16.0508C54.9729 18.334 55.7112 19.4414 56.8596 19.4414C58.008 19.4414 58.7395 18.334 58.7327 16.0508C58.7395 13.7881 58.0012 12.6533 56.8596 12.6465C55.718 12.6533 54.9866 13.7881 54.9866 16.0508ZM66.4556 11.1016V21H64.3912V13.0566H64.3365L62.067 14.4785V12.6602L64.5142 11.1016H66.4556Z" fill="white"/>
</svg>
